<svg width="94" height="88" viewBox="0 0 94 88" fill="none" xmlns="http://www.w3.org/2000/svg">
<rect width="94" height="88" rx="19" fill="url(#paint0_linear_380_1323)"/>
<path d="M34.531 43.8929H34.583C35.8538 43.886 37.07 43.3755 37.9649 42.4733C38.8598 41.571 39.3604 40.3508 39.357 39.08C39.3536 37.8092 38.8463 36.5916 37.9465 35.6943C37.0467 34.7969 35.8278 34.293 34.557 34.293C33.2862 34.293 32.0673 34.7969 31.1675 35.6943C30.2677 36.5916 29.7605 37.8092 29.757 39.08C29.7536 40.3508 30.2542 41.571 31.1491 42.4733C32.0441 43.3755 33.2603 43.886 34.531 43.8929Z" fill="white"/>
<path d="M74.169 25.864H19.831C19.7215 25.8641 19.6131 25.8859 19.512 25.928C19.4109 25.9701 19.3191 26.0318 19.2419 26.1095C19.1647 26.1871 19.1036 26.2793 19.0621 26.3806C19.0206 26.482 18.9995 26.5905 19 26.7V28.1H75V26.7C75.0005 26.5905 74.9794 26.482 74.9379 26.3806C74.8964 26.2793 74.8353 26.1871 74.7581 26.1095C74.6809 26.0318 74.5891 25.9701 74.488 25.928C74.3869 25.8859 74.2785 25.8641 74.169 25.864Z" fill="white"/>
<path d="M19 61.3051C19.0003 61.5254 19.0879 61.7366 19.2437 61.8924C19.3995 62.0482 19.6107 62.1358 19.831 62.1361H74.169C74.3893 62.1358 74.6005 62.0482 74.7563 61.8924C74.9121 61.7366 74.9997 61.5254 75 61.3051V30.1001H19V61.3051ZM50.565 34.1001H66.465C66.7302 34.1001 66.9846 34.2055 67.1721 34.393C67.3596 34.5805 67.465 34.8349 67.465 35.1001C67.465 35.3653 67.3596 35.6197 67.1721 35.8072C66.9846 35.9947 66.7302 36.1001 66.465 36.1001H50.565C50.2998 36.1001 50.0454 35.9947 49.8579 35.8072C49.6704 35.6197 49.565 35.3653 49.565 35.1001C49.565 34.8349 49.6704 34.5805 49.8579 34.393C50.0454 34.2055 50.2998 34.1001 50.565 34.1001ZM50.565 40.3621H66.465C66.7302 40.3621 66.9846 40.4675 67.1721 40.655C67.3596 40.8425 67.465 41.0969 67.465 41.3621C67.465 41.6273 67.3596 41.8817 67.1721 42.0692C66.9846 42.2567 66.7302 42.3621 66.465 42.3621H50.565C50.2998 42.3621 50.0454 42.2567 49.8579 42.0692C49.6704 41.8817 49.565 41.6273 49.565 41.3621C49.565 41.0969 49.6704 40.8425 49.8579 40.655C50.0454 40.4675 50.2998 40.3621 50.565 40.3621ZM50.565 46.6251H66.465C66.7302 46.6251 66.9846 46.7305 67.1721 46.918C67.3596 47.1055 67.465 47.3599 67.465 47.6251C67.465 47.8903 67.3596 48.1447 67.1721 48.3322C66.9846 48.5197 66.7302 48.6251 66.465 48.6251H50.565C50.2998 48.6251 50.0454 48.5197 49.8579 48.3322C49.6704 48.1447 49.565 47.8903 49.565 47.6251C49.565 47.3599 49.6704 47.1055 49.8579 46.918C50.0454 46.7305 50.2998 46.6251 50.565 46.6251ZM50.565 52.8881H66.465C66.7302 52.8881 66.9846 52.9935 67.1721 53.181C67.3596 53.3685 67.465 53.6229 67.465 53.8881C67.465 54.1533 67.3596 54.4077 67.1721 54.5952C66.9846 54.7827 66.7302 54.8881 66.465 54.8881H50.565C50.2998 54.8881 50.0454 54.7827 49.8579 54.5952C49.6704 54.4077 49.565 54.1533 49.565 53.8881C49.565 53.6229 49.6704 53.3685 49.8579 53.181C50.0454 52.9935 50.2998 52.8881 50.565 52.8881ZM24.3 54.1661C24.3025 52.13 24.9092 50.1404 26.0431 48.4493C27.1771 46.7581 28.7873 45.4415 30.67 44.6661C29.4835 43.8384 28.5919 42.6539 28.1248 41.2847C27.6576 39.9156 27.6393 38.4331 28.0725 37.0528C28.5057 35.6725 29.3678 34.4664 30.5335 33.6097C31.6992 32.7529 33.1077 32.2903 34.5544 32.289C36.001 32.2877 37.4104 32.7478 38.5777 33.6024C39.7449 34.4571 40.6091 35.6617 41.0448 37.0412C41.4805 38.4207 41.4648 39.9032 41.0002 41.2732C40.5355 42.6432 39.646 43.8293 38.461 44.6591C40.3436 45.4366 41.9532 46.7551 43.086 48.4478C44.2189 50.1405 44.8241 52.1313 44.825 54.1681V56.7341C44.825 56.9993 44.7196 57.2537 44.5321 57.4412C44.3446 57.6287 44.0902 57.7341 43.825 57.7341C43.5598 57.7341 43.3054 57.6287 43.1179 57.4412C42.9304 57.2537 42.825 56.9993 42.825 56.7341V54.1661C42.8269 51.9797 41.9624 49.8816 40.4209 48.3311C38.8794 46.7806 36.7864 45.9039 34.6 45.8931H34.56H34.522C32.337 45.9074 30.2462 46.7852 28.7059 48.335C27.1656 49.8849 26.3007 51.981 26.3 54.1661V56.7321C26.3 56.9973 26.1946 57.2517 26.0071 57.4392C25.8196 57.6267 25.5652 57.7321 25.3 57.7321C25.0348 57.7321 24.7804 57.6267 24.5929 57.4392C24.4054 57.2517 24.3 56.9973 24.3 56.7321V54.1661Z" fill="white"/>
<defs>
<linearGradient id="paint0_linear_380_1323" x1="-13.4242" y1="-1.52728e-06" x2="118.311" y2="118.437" gradientUnits="userSpaceOnUse">
<stop stop-color="#032E63"/>
</linearGradient>
</defs>
</svg>
