<svg width="90" height="84" viewBox="0 0 90 84" fill="none" xmlns="http://www.w3.org/2000/svg">
<rect width="90" height="84" rx="19" fill="url(#paint0_linear_380_1363)"/>
<g clip-path="url(#clip0_380_1363)">
<path d="M63.6622 12C61.9152 12.0034 60.4994 13.4193 60.496 15.1662V27.7878H66.8142V15.1662C66.821 14.3272 66.491 13.5201 65.8994 12.9257C65.3072 12.3306 64.5018 11.9972 63.6622 12Z" fill="white"/>
<path d="M22.7042 14.8893L22.4854 51.6745H46.6199C47.4247 51.6768 48.0768 52.3283 48.079 53.1336V59.4513C48.079 62.0783 50.2085 64.2083 52.8355 64.2083C55.4625 64.2083 57.5925 62.0783 57.5925 59.4513V15.1663C57.5914 14.0491 57.8992 12.9531 58.4823 12.0001H25.6516C24.042 11.9887 22.7253 13.2797 22.7042 14.8893ZM33.9835 23.3375C33.1776 23.3375 32.5244 22.6843 32.5244 21.8784C32.5244 21.0724 33.1776 20.4192 33.9835 20.4192H40.4619C39.8902 19.1772 38.6488 18.3798 37.2814 18.3764H33.9687C33.1633 18.3764 32.5095 17.7232 32.5095 16.9173C32.5095 16.1113 33.1633 15.4581 33.9687 15.4581H45.5256C46.3315 15.4581 46.9847 16.1113 46.9847 16.9173C46.9847 17.7232 46.3315 18.3764 45.5256 18.3764H42.6506C43.0627 18.9994 43.3591 19.6914 43.5261 20.4192H45.5256C46.3315 20.4192 46.9847 21.0724 46.9847 21.8784C46.9847 22.6843 46.3315 23.3375 45.5256 23.3375H43.5261C42.8712 26.1082 40.4738 28.1196 37.6314 28.2843L43.2342 33.5811C43.6697 33.9904 43.8099 34.6248 43.5876 35.1793C43.3648 35.7339 42.8256 36.0953 42.2277 36.0907C41.8543 36.0902 41.4952 35.9494 41.2211 35.6969L32.9621 27.8905C32.5284 27.4778 32.3893 26.8429 32.611 26.2871C32.8327 25.7314 33.3708 25.3666 33.9687 25.366H37.2814C38.6505 25.3683 39.8947 24.5698 40.4619 23.3232L33.9835 23.3375ZM28.074 39.8697H51.3621C52.1681 39.8697 52.8213 40.5229 52.8213 41.3288C52.8213 42.1348 52.1681 42.788 51.3621 42.788H28.074C27.268 42.788 26.6148 42.1348 26.6148 41.3288C26.6148 40.5229 27.268 39.8697 28.074 39.8697ZM28.074 45.8379H42.1547C42.9607 45.8379 43.6138 46.4911 43.6138 47.2971C43.6138 48.1024 42.9607 48.7562 42.1547 48.7562H28.074C27.268 48.7562 26.6148 48.1024 26.6148 47.2971C26.6148 46.4911 27.268 45.8379 28.074 45.8379Z" fill="white"/>
<path d="M45.1608 54.5779H15.1754V59.4369C15.176 62.064 17.3049 64.1928 19.9319 64.1934H46.824C45.7484 62.8408 45.1625 61.1645 45.1608 59.4369V54.5779Z" fill="white"/>
<path d="M72.0819 38.3232C70.5504 38.3221 69.309 39.5641 69.3096 41.0956V42.7007H74.8543V41.0956C74.8549 39.5641 73.6129 38.3221 72.0819 38.3232Z" fill="white"/>
<path d="M72.1401 71.9997L74.0369 67.8269H70.1554L72.1401 71.9997Z" fill="white"/>
<path d="M69.3096 45.6189H74.8543V64.9229H69.3096V45.6189Z" fill="white"/>
</g>
<defs>
<linearGradient id="paint0_linear_380_1363" x1="-12.8529" y1="-1.45786e-06" x2="112.934" y2="113.433" gradientUnits="userSpaceOnUse">
<stop stop-color="#032E63"/>
</linearGradient>
<clipPath id="clip0_380_1363">
<rect width="60" height="60" fill="white" transform="translate(15 12)"/>
</clipPath>
</defs>
</svg>
