<svg width="90" height="84" viewBox="0 0 90 84" fill="none" xmlns="http://www.w3.org/2000/svg">
<rect width="90" height="84" rx="19" fill="url(#paint0_linear_380_1303)"/>
<g clip-path="url(#clip0_380_1303)">
<path d="M41.4406 28.2712C41.4406 26.0246 39.6194 24.2034 37.3729 24.2034C35.1263 24.2034 33.3051 26.0246 33.3051 28.2712C33.3051 30.5177 35.1263 32.339 37.3729 32.339C39.6194 32.339 41.4406 30.5177 41.4406 28.2712ZM35.339 28.2712C35.339 27.1479 36.2496 26.2373 37.3729 26.2373C38.4961 26.2373 39.4067 27.1479 39.4067 28.2712C39.4067 29.3945 38.4961 30.3051 37.3729 30.3051C36.2496 30.3051 35.339 29.3945 35.339 28.2712Z" fill="white"/>
<path d="M71.3389 23.7661C70.6067 23.1661 68.6745 22.5559 66.2542 24.1729C63.2034 26.2068 63.4678 29.1458 60.4169 30.1627C58.4949 30.7932 58.2 28.2407 57.6305 26.8373C57.5016 26.523 57.2243 26.2938 56.8914 26.2264C56.5584 26.159 56.2138 26.2623 55.9728 26.5017L54.5593 27.7119C54.2509 28.02 54.1731 28.4904 54.3661 28.8814L54.9356 29.6746C55.1285 30.0655 55.0508 30.536 54.7423 30.8441L53.4406 31.9831C53.177 32.2531 52.7855 32.3548 52.4237 32.2475L50.8067 31.7593C50.3384 31.6077 49.8286 31.8133 49.5966 32.2475C49.2569 32.862 48.486 33.0887 47.8678 32.7559L45.5694 31.5051C46.1139 30.3839 46.4384 29.1688 46.5254 27.9254C46.4654 23.25 42.8124 19.4108 38.1457 19.1186C38.6761 18.163 39.3637 17.3035 40.1796 16.5763C40.5373 16.2347 40.5974 15.6854 40.322 15.2746L39.305 13.7288C39.0206 13.3016 38.4623 13.1533 38.0033 13.3831L35.3389 14.7153C34.948 14.9082 34.4776 14.8305 34.1694 14.522L31.9322 12.2949C31.7554 12.1189 31.5202 12.0139 31.2711 12H27.7525C27.4142 11.9995 27.0979 12.1672 26.9084 12.4475L25.7389 14.1966C25.5885 14.4216 25.534 14.6973 25.5875 14.9626C25.6409 15.2279 25.7979 15.461 26.0237 15.6102L27.4779 16.6271C27.9052 16.9116 28.0534 17.4698 27.8237 17.9288L27.7118 18.1017C27.4952 18.5384 27.6189 19.0674 28.0067 19.3627L31.0576 21.5797C29.3967 23.1094 28.4063 25.2326 28.3017 27.4881L26.0949 30.478C25.8104 30.9052 25.2522 31.0535 24.7932 30.8237L24.0915 30.3763C23.6325 30.1465 23.0743 30.2948 22.7898 30.722L21.7016 32.8576C21.4955 33.1874 21.4955 33.6058 21.7016 33.9356L23.4508 36.2746C23.6593 36.6271 23.636 37.0702 23.3917 37.3989C23.1474 37.7276 22.7298 37.8776 22.3322 37.7797L21.0406 37.4237C20.6788 37.3163 20.2873 37.4181 20.0237 37.6881L19.3118 38.3898C19.0889 38.6124 18.9817 38.9256 19.0215 39.2381C19.0613 39.5505 19.2436 39.8269 19.5152 39.9864L21.3457 41.2576C21.6823 41.4635 21.8695 41.8454 21.8259 42.2375C21.7824 42.6297 21.5159 42.9612 21.1423 43.0881C20.8652 43.1944 20.6484 43.4165 20.5487 43.696C20.449 43.9756 20.4764 44.2847 20.6237 44.5424C21.3629 45.4608 22.3857 46.1081 23.5322 46.3831C24.0425 46.6536 24.6482 46.6776 25.1783 46.4481C25.7085 46.2187 26.1055 45.7607 26.2576 45.2034C26.371 44.8691 26.6496 44.6175 26.9937 44.5387C27.3378 44.4599 27.6982 44.5653 27.9457 44.817L28.322 45.2034C28.505 45.3878 28.6105 45.6352 28.6169 45.8949C28.6169 47.5831 28.8813 54.1017 30.6508 57.6203C32.6847 61.6881 35.7355 65.7559 35.7355 68.8068C35.6301 69.4625 35.8669 70.1267 36.3636 70.5677C36.8602 71.0087 37.5477 71.1653 38.1864 70.9831C38.5092 70.9346 38.7891 70.7341 38.9389 70.4441C39.3509 69.4978 40.2671 68.8699 41.2983 68.8271C41.8402 68.7633 42.2351 68.2831 42.1932 67.739C41.8474 65.8068 43.8711 63.1831 43.8711 60.7119C43.8257 59.259 43.4975 57.829 42.905 56.5017C42.7635 56.07 42.9254 55.5969 43.3016 55.3424C45.3332 53.9352 47.2264 52.3382 48.9559 50.5729L54.7728 44.7559C54.9444 44.5844 55.049 44.3572 55.0678 44.1153C55.1226 43.2376 55.4823 42.4067 56.0847 41.7661C56.522 41.339 57.3762 41.4305 57.9457 41.5017C58.6779 41.5932 59.3186 40.617 59.0949 39.9153C58.4141 38.3924 57.4748 36.999 56.3186 35.7966C55.9448 35.3875 55.9674 34.7543 56.3694 34.3729L57.3152 33.5797C57.6233 33.2712 58.0938 33.1935 58.4847 33.3864L59.7254 34.1695C59.9712 34.2823 60.2501 34.3004 60.5084 34.2203L61.4339 33.8542C61.7849 33.7402 62.1702 33.8253 62.4405 34.0766C62.7108 34.3279 62.8237 34.706 62.7355 35.0644L62.2067 36.5593C62.0815 37.0473 62.3324 37.5534 62.7966 37.7492L65.1457 39.2746C65.4051 39.4055 65.708 39.4192 65.9781 39.3123C66.2482 39.2054 66.4597 38.9882 66.5593 38.7153C67.1491 37.0678 68.3288 33.4475 68.3288 31.2712C68.3288 29.0949 70.3627 28.4847 71.2372 28.2712C71.6779 28.1331 71.9702 27.7155 71.9491 27.2542V25.4746C72.0423 24.8391 71.8137 24.1988 71.3389 23.7661ZM37.3728 21.1525C39.2151 21.1061 41.0004 21.7937 42.3355 23.064C43.6706 24.3343 44.4462 26.0831 44.4915 27.9254C44.4915 29.5932 42.844 33.0102 39.9966 37.2305C39.4881 38.0136 38.4711 39.4373 37.8915 40.2814C37.7604 40.4264 37.5669 40.4985 37.3728 40.4746C37.1772 40.4778 36.9919 40.3871 36.8745 40.2305C36.7423 40.0475 35.8576 38.9288 34.8406 37.4034C34.6881 37.1695 34.7389 37.2305 34.6779 37.1695C34.6169 37.1085 30.2542 30.722 30.2542 27.9254C30.2995 26.0831 31.0751 24.3343 32.4102 23.064C33.7453 21.7937 35.5305 21.1061 37.3728 21.1525ZM37.3728 47.5932C34.003 47.5932 31.2711 44.8614 31.2711 41.4915C31.265 40.0952 31.7511 38.7414 32.644 37.6678C33.0406 38.278 33.4474 38.878 33.8542 39.4678C33.4943 40.0815 33.3047 40.7801 33.305 41.4915C33.305 43.7381 35.1263 45.5593 37.3728 45.5593C39.6194 45.5593 41.4406 43.7381 41.4406 41.4915C41.4429 40.7954 41.2604 40.1111 40.9118 39.5085C41.3186 38.9186 41.7355 38.3085 42.1322 37.6983C43.0074 38.768 43.4821 40.1094 43.4745 41.4915C43.4745 43.1098 42.8317 44.6618 41.6874 45.8061C40.5431 46.9504 38.9911 47.5932 37.3728 47.5932Z" fill="white"/>
</g>
<defs>
<linearGradient id="paint0_linear_380_1303" x1="-12.8529" y1="-1.45786e-06" x2="112.934" y2="113.433" gradientUnits="userSpaceOnUse">
<stop stop-color="#032E63"/>
</linearGradient>
<clipPath id="clip0_380_1303">
<rect width="60" height="60" fill="white" transform="translate(15 12)"/>
</clipPath>
</defs>
</svg>
