<svg width="64" height="64" viewBox="0 0 64 64" fill="none" xmlns="http://www.w3.org/2000/svg">
<path d="M23.7699 33C22.2908 33.0026 20.8731 33.5914 19.8272 34.6373C18.7813 35.6831 18.1926 37.1009 18.1899 38.58V48.37H29.3499V38.58C29.3499 37.1001 28.7621 35.6808 27.7156 34.6343C26.6691 33.5879 25.2498 33 23.7699 33Z" fill="#032E63"/>
<path d="M55.84 21.1498L49.2 6.7998H23.59L24.19 7.7198C24.2732 7.84896 24.3254 7.99552 24.3428 8.14813C24.3601 8.30074 24.3421 8.45529 24.29 8.5998L23.8 9.9998H46.13C46.3953 9.9998 46.6496 10.1052 46.8371 10.2927C47.0247 10.4802 47.13 10.7346 47.13 10.9998C47.13 11.265 47.0247 11.5194 46.8371 11.7069C46.6496 11.8944 46.3953 11.9998 46.13 11.9998H23.13L22.41 13.9998L22.83 15.5598H46.13C46.3953 15.5598 46.6496 15.6652 46.8371 15.8527C47.0247 16.0402 47.13 16.2946 47.13 16.5598C47.13 16.825 47.0247 17.0794 46.8371 17.2669C46.6496 17.4544 46.3953 17.5598 46.13 17.5598H23.33L24.33 21.1398H55.84V21.1498Z" fill="#032E63"/>
<path d="M17.19 50.3701H4V57.2001H60V50.3701H30.36H17.19Z" fill="#032E63"/>
<path d="M39.03 30.0601H53.31V36.8401H39.03V30.0601Z" fill="#032E63"/>
<path d="M9.69003 21.15H18.94L14.66 16.15C14.5414 16.0137 14.4619 15.8478 14.43 15.67L13.43 9.72998L8.16003 21.15H9.69003Z" fill="#032E63"/>
<path d="M53.31 23.1499H24.84L25.61 25.9999C25.6508 26.151 25.6555 26.3095 25.6239 26.4627C25.5923 26.6159 25.5251 26.7596 25.4278 26.8822C25.3306 27.0047 25.2059 27.1027 25.0639 27.1683C24.9218 27.2339 24.7664 27.2653 24.61 27.2599C24.4656 27.2599 24.3228 27.2286 24.1916 27.1682C24.0604 27.1078 23.9439 27.0197 23.85 26.9099L20.62 23.1499H10.62V48.3699H16.12V38.5799C16.12 36.5696 16.9186 34.6416 18.3401 33.22C19.7617 31.7985 21.6897 30.9999 23.7 30.9999C25.7103 30.9999 27.6383 31.7985 29.0599 33.22C30.4814 34.6416 31.28 36.5696 31.28 38.5799V48.3699H53.28V38.8399H38C37.7348 38.8399 37.4804 38.7345 37.2929 38.547C37.1054 38.3595 37 38.1051 37 37.8399V29.0599C37 28.7947 37.1054 28.5403 37.2929 28.3528C37.4804 28.1653 37.7348 28.0599 38 28.0599H53.31V23.1499Z" fill="#032E63"/>
</svg>
