<svg width="60" height="60" viewBox="0 0 60 60" fill="none" xmlns="http://www.w3.org/2000/svg">
<g clip-path="url(#clip0_380_1546)">
<path d="M12.7783 16.2156C12.633 16.1675 12.4881 16.1675 12.3432 16.1675C11.6664 16.1675 11.0869 16.6026 10.8934 17.2789C10.7966 17.6654 10.8453 18.0524 11.0383 18.3903C11.2318 18.7287 11.5702 18.9704 11.9567 19.1152C12.7783 19.3569 13.5995 18.8736 13.8412 18.1006C13.9379 17.714 13.8898 17.3275 13.6963 16.9891C13.5032 16.6026 13.1649 16.361 12.7783 16.2156Z" fill="#032E63"/>
<path d="M20.9454 23.2717C22.2984 23.2717 23.6033 22.9333 24.7634 22.2566C25.2467 21.9668 25.8267 22.1117 26.1164 22.595C26.4062 23.0782 26.2613 23.6582 25.7781 23.948C24.3282 24.8183 22.6368 25.2529 20.9454 25.2529C20.6556 25.2529 20.3653 25.2529 20.0756 25.2048" fill="#032E63"/>
<path d="M16.3543 21.725C17.6111 22.6915 19.1572 23.2229 20.7523 23.2715C21.8638 18.4388 18.9155 13.5094 14.0347 12.1563C13.5514 12.0114 13.0681 11.9628 12.633 11.866L14.2282 12.5428C13.9379 13.1228 13.7449 13.751 13.5995 14.4278C14.4212 14.7175 15.098 15.2489 15.5326 16.0225C15.9678 16.8441 16.1126 17.762 15.871 18.6318C15.4363 20.1784 14.0347 21.1449 12.4881 21.1449C12.1983 21.1449 11.86 21.0968 11.5216 21C10.6036 20.7584 9.87874 20.1784 9.39547 19.3567C8.96033 18.5356 8.81545 17.6172 9.05708 16.7474C9.39547 15.4906 10.4101 14.6208 11.5702 14.331C11.7151 13.4612 11.9567 12.6396 12.3432 11.8179C10.4101 11.6244 8.5252 12.0114 6.78562 12.9779C4.56276 14.2343 2.96759 16.2155 2.24269 18.6804C1.13126 22.4017 2.33944 26.2679 5.23906 28.5875C5.38395 28.7324 5.43256 28.9259 5.38395 29.0708L3.45086 36.4647C3.45086 36.6096 3.45086 36.7063 3.49947 36.8031L4.6109 39.3162C4.70765 39.5578 4.6109 39.7995 4.4174 39.9443L2.58107 41.1525C2.38805 41.2974 2.2913 41.539 2.38805 41.7807L3.30598 43.7138C3.40273 43.9554 3.35459 44.197 3.11295 44.3419L1.32476 45.502C1.13126 45.6468 1.03451 45.8885 1.13126 46.1301L2.04966 48.0632C2.14641 48.3048 2.04966 48.5946 1.85617 48.6914L0.261467 49.5611C0.0198319 49.7065 -0.0769165 49.9963 0.0679703 50.2379L1.85617 53.4759C1.90478 53.5727 2.04966 53.6689 2.14641 53.7176H2.2913C2.38805 53.7176 2.48432 53.7176 2.53293 53.6689L6.25421 51.4942C6.35049 51.4461 6.44723 51.3493 6.49584 51.2045L12.2465 31.4385C12.2951 31.2455 12.44 31.1006 12.633 31.1006C15.7261 30.6655 18.5776 28.3459 19.9788 25.2527C18.1906 25.1078 16.451 24.4311 15.0012 23.3197C14.5661 22.9813 14.4698 22.3531 14.8077 21.9185C15.291 21.4833 15.9196 21.3866 16.3543 21.725Z" fill="#032E63"/>
<path d="M12.2951 11.7697C13.8412 8.57979 17.1759 6.35693 20.9453 6.35693C25.3915 6.35693 29.3058 9.49819 30.2724 13.7509C30.3691 14.2823 30.0307 14.8142 29.4993 14.9109C28.9679 15.0072 28.436 14.6693 28.2911 14.1374C27.5181 10.7545 24.425 8.29002 20.8972 8.29002C17.949 8.29002 15.3396 9.98146 14.0828 12.4946" fill="#032E63"/>
<path d="M59.7037 32.1634L42.7411 15.3943C42.3541 15.0073 41.2913 14.1375 40.0345 14.0894L29.0642 13.0742C29.0161 13.0742 29.0161 13.0742 28.9679 13.0742H28.7263C27.5662 13.0742 26.5997 13.5094 25.7299 14.3791C24.8115 15.2975 24.425 16.2641 24.425 17.6172V17.7139L25.3915 28.5875C25.3915 29.8438 26.3099 30.859 26.6965 31.2455L43.6591 48.0151C43.8526 48.2081 44.0942 48.3048 44.384 48.3048C44.6742 48.3048 44.9158 48.2081 45.1089 48.0151L59.7519 33.5651C60.0903 33.1786 60.0903 32.5504 59.7037 32.1634ZM36.8451 31.0038C36.6035 31.0038 36.3133 30.9071 36.1202 30.7136C35.7337 30.3271 35.7337 29.6989 36.1202 29.3124L40.9529 24.5278C41.3395 24.1413 41.9676 24.1413 42.3541 24.5278C42.7411 24.9143 42.7411 25.543 42.3541 25.9295L37.5214 30.7136C37.3284 30.9071 37.0868 31.0038 36.8451 31.0038ZM48.0085 31.4871L43.1758 36.2712C42.9828 36.4647 42.7411 36.5614 42.4509 36.5614C42.1611 36.5614 41.9195 36.4647 41.726 36.2712C41.3395 35.8847 41.3395 35.2565 41.726 34.87L46.5587 30.0854C46.9452 29.6989 47.5738 29.6989 47.9604 30.0854C48.395 30.472 48.395 31.1006 48.0085 31.4871Z" fill="#032E63"/>
</g>
<defs>
<clipPath id="clip0_380_1546">
<rect width="60" height="60" fill="white"/>
</clipPath>
</defs>
</svg>
