<svg width="60" height="60" viewBox="0 0 60 60" fill="none" xmlns="http://www.w3.org/2000/svg">
<g clip-path="url(#clip0_380_1561)">
<path d="M14.0911 34.0371H9.6601C10.9199 36.5109 13.1385 38.3852 15.8405 39.1926C15.1807 37.8907 14.5187 36.1623 14.0911 34.0371Z" fill="#032E63"/>
<path d="M16.1812 34.0371C16.7598 36.6386 17.7149 38.5061 18.4482 39.6341C18.5497 39.6371 18.644 39.6641 18.746 39.6641C18.8479 39.6641 18.9423 39.6371 19.0432 39.6341C19.779 38.5036 20.7332 36.6368 21.3106 34.0371H16.1812Z" fill="#032E63"/>
<path d="M28.6137 26.8755H23.7171C23.8024 27.6858 23.8614 28.5285 23.8614 29.4332C23.8614 30.3384 23.8004 31.1801 23.7141 31.9909H28.6137C28.8275 31.1686 28.9769 30.3215 28.9769 29.4332C28.9769 28.5449 28.8275 27.6978 28.6137 26.8755Z" fill="#032E63"/>
<path d="M21.6484 19.6729C22.3234 20.9952 22.9843 22.7089 23.4074 24.8292H27.832C26.5715 22.3545 24.3519 20.4797 21.6484 19.6729Z" fill="#032E63"/>
<path d="M19.0467 19.2326C18.9443 19.2296 18.8489 19.2021 18.7461 19.2021C18.6441 19.2021 18.5493 19.2291 18.4483 19.2321C17.684 20.4025 16.7468 22.2651 16.1789 24.8291H21.3137C20.7481 22.2738 19.8145 20.4105 19.0467 19.2326Z" fill="#032E63"/>
<path d="M21.6549 26.8755H15.8377C15.7442 27.6804 15.6768 28.5195 15.6768 29.4332C15.6768 30.3464 15.7452 31.1856 15.8397 31.9909H21.653C21.7469 31.1856 21.8154 30.3466 21.8154 29.4332C21.8153 28.5195 21.7478 27.6805 21.6549 26.8755Z" fill="#032E63"/>
<path d="M9.66022 24.8292H14.0863C14.5099 22.708 15.1713 20.9922 15.8437 19.6729C13.14 20.4802 10.9205 22.3545 9.66022 24.8292Z" fill="#032E63"/>
<path d="M13.6306 29.4332C13.6306 28.5285 13.69 27.6858 13.7754 26.8755H8.87833C8.66451 27.6978 8.51514 28.5449 8.51514 29.4332C8.51514 30.3215 8.66451 31.1686 8.87833 31.9909H13.7785C13.6916 31.1801 13.6306 30.3384 13.6306 29.4332Z" fill="#032E63"/>
<path d="M23.4012 34.0366C22.9747 36.1618 22.3133 37.889 21.6524 39.1921C24.354 38.3842 26.572 36.5103 27.8318 34.0366H23.4012Z" fill="#032E63"/>
<path d="M54.5889 6.49546L30.8715 0.140449C28.6885 -0.444499 26.4445 0.851108 25.8596 3.03411L23.7206 11.0175H33.0693C34.3326 11.0175 35.4482 11.602 36.1985 12.5017C36.9768 12.7102 38.433 13.1004 39.7688 13.4582L46.5048 7.17773L48.3906 7.68313L44.1693 14.6374C45.4082 14.9694 46.6726 15.308 47.5013 15.5303L50.0605 14.0261L51.3179 14.363L49.3332 17.3685L49.549 20.9639L48.2916 20.6271L46.8273 18.045C45.9985 17.8228 44.7342 17.4841 43.4954 17.1521L43.6742 25.2857L41.7884 24.7803L39.0948 15.9732C38.4369 15.7969 37.7804 15.621 37.1616 15.4552V40.0649L39.2693 32.0475L41.2455 32.5772L37.1616 48.1141V51.9411C37.1616 54.2012 35.3293 56.0334 33.0693 56.0334H26.0106L40.2903 59.8596C42.4733 60.4446 44.7173 59.1491 45.3023 56.9659L51.9258 32.2474L49.9441 31.7312L50.4756 29.755L52.4554 30.2706L57.483 11.5077C58.0678 9.32454 56.7719 7.08053 54.5889 6.49546ZM40.061 29.0825L38.0848 28.5529L38.6163 26.5767L40.5925 27.1062L40.061 29.0825ZM42.5667 27.6367L44.5449 28.1663L44.0174 30.1425L42.0391 29.6129L42.5667 27.6367ZM41.3493 55.9067L39.3731 55.3771L45.1983 33.6362L47.1745 34.1658L41.3493 55.9067ZM47.9678 31.2015L45.9916 30.6719L46.5231 28.6957L48.4993 29.2253L47.9678 31.2015Z" fill="#032E63"/>
<path d="M33.0691 13.064H2.37665V53.9873H33.0691C34.1976 53.9873 35.1153 53.0693 35.1153 51.9411V15.1101C35.1153 13.9819 34.1976 13.064 33.0691 13.064ZM28.9768 49.895H8.51515V47.8488H28.9768V49.895ZM18.746 41.7103C11.9656 41.7103 6.46898 36.2137 6.46898 29.4333C6.46898 22.6529 11.9656 17.1563 18.746 17.1563C25.5263 17.1563 31.023 22.6529 31.023 29.4333C31.023 36.2137 25.5265 41.7103 18.746 41.7103Z" fill="#032E63"/>
</g>
<defs>
<clipPath id="clip0_380_1561">
<rect width="60" height="60" fill="white"/>
</clipPath>
</defs>
</svg>
