<svg width="60" height="60" viewBox="0 0 60 60" fill="none" xmlns="http://www.w3.org/2000/svg">
<path d="M7.20541 38.8418H4.95641L2.85116 49.3383C2.58261 50.6746 4.08691 51.5428 6.08106 51.5428C8.07521 51.5428 9.57911 50.6756 9.31171 49.3383L7.20541 38.8418Z" fill="#032E63"/>
<path d="M7.73401 36.1078C7.73401 37.0198 6.99598 37.7638 6.078 37.7638C5.16599 37.7638 4.422 37.0198 4.422 36.1078C4.422 35.1898 5.16599 34.4458 6.078 34.4458C6.99598 34.4458 7.73401 35.1898 7.73401 36.1078Z" fill="#032E63"/>
<path d="M57.9794 18.2009L30.7824 8.60586C30.2212 8.40742 29.7804 8.40742 29.2195 8.60586L2.0205 18.2009C1.67539 18.3223 1.5 18.5706 1.5 18.9364V21.5353C1.5 21.9015 1.67539 22.1503 2.0205 22.2718L30 32.1428L57.9795 22.2718C58.3246 22.1493 58.5 21.902 58.5 21.5356V18.9368C58.5 18.5705 58.3245 18.3224 57.9794 18.2009Z" fill="#032E63"/>
<path d="M29.9994 34.4862L29.2642 34.2265L12.5637 28.3345V34.2765C12.5637 43.521 18.4437 47.687 29.9992 47.687C41.5542 47.687 47.4337 43.521 47.4337 34.2765V28.3345L30.7342 34.2265L29.9994 34.4862Z" fill="#032E63"/>
<path d="M7.18588 26.4374L4.97473 25.6577V33.5437H7.18588V26.4374Z" fill="#032E63"/>
</svg>
