<svg width="90" height="84" viewBox="0 0 90 84" fill="none" xmlns="http://www.w3.org/2000/svg">
<rect width="90" height="84" rx="19" fill="url(#paint0_linear_380_1353)"/>
<path d="M45.9688 51.4475L61.25 24.9788V22C61.25 18.5488 58.4512 15.75 55 15.75H27.5C24.0488 15.75 21.25 18.5488 21.25 22V62C21.25 65.4512 24.0488 68.25 27.5 68.25H55C58.4512 68.25 61.25 65.4512 61.25 62V49.9813L56.795 57.6987C56.1362 58.8375 55.21 59.82 54.115 60.5413L50.805 62.7288C50.1462 63.1637 49.385 63.3938 48.6037 63.3938C47.5037 63.3938 46.44 62.9325 45.6812 62.1275C44.9225 61.32 44.5413 60.2625 44.6087 59.15L44.845 55.19C44.9237 53.8762 45.3125 52.5825 45.9688 51.4463V51.4475ZM28.75 23.25H40C40.6912 23.25 41.25 23.81 41.25 24.5C41.25 25.19 40.6912 25.75 40 25.75H28.75C28.0588 25.75 27.5 25.19 27.5 24.5C27.5 23.81 28.0588 23.25 28.75 23.25ZM28.75 30.75H51.6125C52.3038 30.75 52.8625 31.31 52.8625 32C52.8625 32.69 52.3038 33.25 51.6125 33.25H28.75C28.0588 33.25 27.5 32.69 27.5 32C27.5 31.31 28.0588 30.75 28.75 30.75ZM40.45 60.75H38.75C38.3325 60.75 37.9425 60.5412 37.7113 60.195L36.2488 58.0075L35.4525 59.2062C35.04 59.7975 34.3737 60.1088 33.6763 60.0263C32.9937 59.9488 32.41 59.505 32.1525 58.8687L31.25 56.615L29.91 59.965C29.715 60.4538 29.245 60.7513 28.7487 60.7513C28.5937 60.7513 28.4375 60.7225 28.285 60.6613C27.6438 60.405 27.3312 59.6775 27.5875 59.0363L28.925 55.6863C29.3138 54.7288 30.2238 54.1125 31.2475 54.1125C32.2712 54.1125 33.1825 54.7287 33.5675 55.6813L34.0275 56.8313L34.1687 56.62C34.62 55.9237 35.4 55.5 36.2463 55.5C37.0925 55.5 37.8725 55.9225 38.3325 56.6325L39.4137 58.25H40.4463C41.1375 58.25 41.6963 58.81 41.6963 59.5C41.6963 60.19 41.1375 60.75 40.4463 60.75H40.45ZM42.95 48.25H28.75C28.0588 48.25 27.5 47.69 27.5 47C27.5 46.31 28.0588 45.75 28.75 45.75H42.95C43.6413 45.75 44.2 46.31 44.2 47C44.2 47.69 43.6413 48.25 42.95 48.25ZM28.75 40.75C28.0588 40.75 27.5 40.19 27.5 39.5C27.5 38.81 28.0588 38.25 28.75 38.25H47.275C47.9662 38.25 48.525 38.81 48.525 39.5C48.525 40.19 47.9662 40.75 47.275 40.75H28.75Z" fill="white"/>
<path d="M69.3062 31.0262L70.8475 28.3562C71.6763 26.9212 71.1837 25.0862 69.75 24.2587L68.4513 23.5087C67.0163 22.6799 65.1813 23.1724 64.3538 24.6062L62.8125 27.2762L69.3062 31.0262Z" fill="white"/>
<path d="M61.5613 29.4412L48.1338 52.6987C47.6675 53.5049 47.3963 54.4099 47.3413 55.3387L47.1038 59.2999C47.03 60.5337 48.3963 61.3224 49.4275 60.6412L52.74 58.4549C53.5175 57.9412 54.165 57.2549 54.63 56.4474L68.0575 33.1899L61.5625 29.4399L61.5613 29.4412Z" fill="white"/>
<defs>
<linearGradient id="paint0_linear_380_1353" x1="-12.8529" y1="-1.45786e-06" x2="112.934" y2="113.433" gradientUnits="userSpaceOnUse">
<stop stop-color="#032E63"/>
</linearGradient>
</defs>
</svg>
