<svg width="90" height="84" viewBox="0 0 90 84" fill="none" xmlns="http://www.w3.org/2000/svg">
<rect width="90" height="84" rx="19" fill="url(#paint0_linear_380_1308)"/>
<path fill-rule="evenodd" clip-rule="evenodd" d="M26.4746 70.125L17.1531 53.9809L22.5858 50.8446L31.9062 66.9887L26.4746 70.125ZM71.1756 51.9188C71.2193 51.0741 70.7133 50.2341 69.8525 49.7273C68.6582 49.0222 67.0939 49.129 65.6675 50.0138C65.6542 50.0223 65.6398 50.0307 65.6263 50.038L53.7279 56.5195C51.5311 58.1665 47.0599 57.8461 40.0623 55.5411C39.8482 55.4706 39.6709 55.318 39.5694 55.1168C39.4679 54.9155 39.4505 54.6822 39.521 54.4682C39.5915 54.2541 39.7442 54.0768 39.9454 53.9753C40.1466 53.8738 40.3799 53.8564 40.594 53.9269C44.2033 55.1163 46.8012 55.6589 48.6702 55.8143C50.0927 55.0727 50.8624 54.2946 50.8938 53.5628C50.9266 52.775 50.0852 51.7907 48.5865 50.8586C46.5511 49.595 43.4829 48.5087 40.3803 47.9523C37.2889 47.3988 34.6952 47.4741 33.4365 48.1549C33.2132 48.2897 30.6436 49.8408 25.6941 52.8307L31.6331 63.1186L32.2639 62.7107C32.7544 62.3943 33.0518 62.2689 33.6599 62.4813C33.7387 62.5092 33.8273 62.5399 33.9548 62.5751L45.4611 65.7356C45.4793 65.7418 45.4977 65.7466 45.5157 65.7539C47.5597 66.4676 49.3623 66.3047 51.0273 65.2563C51.0322 65.2539 51.0371 65.2501 51.0421 65.2478L68.7954 54.5426C68.8228 54.5259 68.8511 54.5109 68.8803 54.4976C70.3077 53.8423 71.1234 52.9273 71.1756 51.9195V51.9188ZM72.8469 40.6867C72.8461 41.3781 72.571 42.041 72.082 42.5298C71.593 43.0186 70.93 43.2934 70.2385 43.2939H27.8837C27.1923 43.2934 26.5293 43.0186 26.0402 42.5298C25.5512 42.0411 25.2761 41.3782 25.2752 40.6868V16.4835C25.2759 15.7919 25.5509 15.1288 26.0399 14.6398C26.5289 14.1507 27.192 13.8757 27.8836 13.875H70.2385C70.9301 13.8757 71.5931 14.1508 72.0822 14.6398C72.5712 15.1289 72.8462 15.7919 72.8469 16.4835V40.6867ZM69.5529 22.1759C67.3328 21.1692 65.5538 19.3904 64.5469 17.1704C64.4794 17.0216 64.3705 16.8954 64.2331 16.8069C64.0958 16.7184 63.9358 16.6714 63.7724 16.6716H34.3493C34.186 16.6714 34.0262 16.7184 33.889 16.8069C33.7518 16.8954 33.643 17.0216 33.5758 17.1704C32.5686 19.3901 30.79 21.1687 28.5703 22.1759C28.4214 22.2429 28.2951 22.3516 28.2066 22.4889C28.1181 22.6261 28.0711 22.786 28.0714 22.9493V34.2213C28.0712 34.3846 28.1182 34.5444 28.2066 34.6816C28.2951 34.8188 28.4213 34.9276 28.5701 34.9948C30.7898 36.0019 32.5684 37.7806 33.5756 40.0003C33.643 40.149 33.7518 40.275 33.889 40.3635C34.0261 40.452 34.1858 40.4991 34.3491 40.4992H63.7734C63.9367 40.4991 64.0965 40.452 64.2338 40.3636C64.3711 40.2751 64.4801 40.1491 64.5477 40.0004C65.5545 37.7805 67.3332 36.0017 69.5531 34.9949C69.7018 34.9275 69.8279 34.8187 69.9164 34.6816C70.0048 34.5444 70.0519 34.3847 70.052 34.2214V22.9491C70.052 22.7858 70.005 22.626 69.9165 22.4888C69.828 22.3517 69.7018 22.2429 69.5531 22.1756L69.5529 22.1759ZM68.3523 33.6871V23.4819C66.1539 22.3573 64.3653 20.569 63.2403 18.3708H34.8833C33.7582 20.569 31.9696 22.3571 29.7711 23.4817V33.687C31.9697 34.812 33.7584 36.6007 34.8835 38.7993H63.2401C64.3648 36.6004 66.1535 34.8117 68.3523 33.687V33.6871ZM49.061 22.2693C47.8116 22.269 46.5903 22.6393 45.5514 23.3333C44.5124 24.0272 43.7027 25.0137 43.2245 26.1679C42.7462 27.3222 42.6211 28.5923 42.8647 29.8176C43.1084 31.043 43.71 32.1686 44.5935 33.052C45.4769 33.9355 46.6025 34.5371 47.8279 34.7808C49.0532 35.0244 50.3233 34.8993 51.4776 34.421C52.6318 33.9428 53.6183 33.133 54.3122 32.0941C55.0062 31.0552 55.3765 29.8339 55.3762 28.5845C55.3744 26.9102 54.7084 25.3049 53.5245 24.121C52.3406 22.9371 50.7353 22.2711 49.061 22.2693ZM49.061 33.2016C49.9741 33.2017 50.8666 32.931 51.6259 32.4239C52.3851 31.9167 52.9769 31.1958 53.3264 30.3523C53.676 29.5088 53.7675 28.5806 53.5895 27.6851C53.4115 26.7895 52.9719 25.9669 52.3264 25.3212C51.6809 24.6755 50.8584 24.2357 49.9629 24.0574C49.0674 23.8792 48.1392 23.9705 47.2956 24.3197C46.452 24.669 45.7309 25.2606 45.2235 26.0197C44.7161 26.7788 44.4452 27.6713 44.4451 28.5844C44.4463 29.8083 44.933 30.9818 45.7984 31.8474C46.6637 32.713 47.8371 33.2 49.061 33.2016ZM64.3969 28.5844C64.3968 28.3591 64.3073 28.143 64.148 27.9837C63.9886 27.8244 63.7726 27.7348 63.5473 27.7348H60.1814C59.9561 27.7348 59.74 27.8243 59.5806 27.9836C59.4213 28.1429 59.3318 28.359 59.3318 28.5844C59.3318 28.8097 59.4213 29.0258 59.5806 29.1851C59.74 29.3445 59.9561 29.434 60.1814 29.434H63.5469C63.6585 29.4341 63.769 29.4121 63.8721 29.3695C63.9753 29.3268 64.069 29.2642 64.1479 29.1853C64.2268 29.1064 64.2894 29.0127 64.3321 28.9096C64.3748 28.8065 64.3967 28.696 64.3966 28.5844H64.3969ZM38.7914 28.5844C38.7911 28.3591 38.7015 28.1432 38.5422 27.9839C38.383 27.8246 38.167 27.735 37.9418 27.7348H34.5749C34.3495 27.7348 34.1334 27.8243 33.9741 27.9836C33.8148 28.1429 33.7253 28.359 33.7253 28.5844C33.7253 28.8097 33.8148 29.0258 33.9741 29.1851C34.1334 29.3445 34.3495 29.434 34.5749 29.434H37.9417C38.167 29.434 38.3832 29.3445 38.5426 29.1852C38.7019 29.0259 38.7915 28.8098 38.7916 28.5845L38.7914 28.5844Z" fill="white"/>
<defs>
<linearGradient id="paint0_linear_380_1308" x1="-12.8529" y1="-1.45786e-06" x2="112.934" y2="113.433" gradientUnits="userSpaceOnUse">
<stop stop-color="#032E63"/>
</linearGradient>
</defs>
</svg>
