<svg width="60" height="60" viewBox="0 0 60 60" fill="none" xmlns="http://www.w3.org/2000/svg">
<path d="M7.85719 21.8428H1.75781C0.787031 21.8428 0 22.6298 0 23.6006V60H7.85719V21.8428Z" fill="#032E63"/>
<path d="M58.2422 21.8428H52.1428V60H60V23.6006C60 22.6298 59.213 21.8428 58.2422 21.8428Z" fill="#032E63"/>
<path d="M33.0568 48.2544V59.9999H26.9433V48.2544H33.0568Z" fill="#032E63"/>
<path d="M46.8694 7.21992H41.3353V1.75781C41.3353 0.787031 40.5483 0 39.5775 0H20.6714C19.7006 0 18.9136 0.787031 18.9136 1.75781V7.21992H13.1306C12.1598 7.21992 11.3728 8.00695 11.3728 8.97773V60H23.4276V46.4967C23.4276 45.5259 24.2147 44.7389 25.1855 44.7389H34.8145C35.7853 44.7389 36.5723 45.5259 36.5723 46.4967V60H48.6272V8.97773C48.6272 8.00695 47.8401 7.21992 46.8694 7.21992ZM22.0403 38.6643H20.1472C19.1764 38.6643 18.3894 37.8772 18.3894 36.9064C18.3894 35.9357 19.1764 35.1486 20.1472 35.1486H22.0403C23.011 35.1486 23.7981 35.9357 23.7981 36.9064C23.7981 37.8772 23.011 38.6643 22.0403 38.6643ZM22.0403 31.633H20.1472C19.1764 31.633 18.3894 30.846 18.3894 29.8752C18.3894 28.9044 19.1764 28.1174 20.1472 28.1174H22.0403C23.011 28.1174 23.7981 28.9044 23.7981 29.8752C23.7981 30.846 23.011 31.633 22.0403 31.633ZM22.0403 24.6018H20.1472C19.1764 24.6018 18.3894 23.8147 18.3894 22.8439C18.3894 21.8732 19.1764 21.0861 20.1472 21.0861H22.0403C23.011 21.0861 23.7981 21.8732 23.7981 22.8439C23.7981 23.8147 23.011 24.6018 22.0403 24.6018ZM30.9465 38.6643H29.0535C28.0827 38.6643 27.2957 37.8772 27.2957 36.9064C27.2957 35.9357 28.0827 35.1486 29.0535 35.1486H30.9465C31.9173 35.1486 32.7043 35.9357 32.7043 36.9064C32.7043 37.8772 31.9173 38.6643 30.9465 38.6643ZM30.9465 31.633H29.0535C28.0827 31.633 27.2957 30.846 27.2957 29.8752C27.2957 28.9044 28.0827 28.1174 29.0535 28.1174H30.9465C31.9173 28.1174 32.7043 28.9044 32.7043 29.8752C32.7043 30.846 31.9173 31.633 30.9465 31.633ZM30.9465 24.6018H29.0535C28.0827 24.6018 27.2957 23.8147 27.2957 22.8439C27.2957 21.8732 28.0827 21.0861 29.0535 21.0861H30.9465C31.9173 21.0861 32.7043 21.8732 32.7043 22.8439C32.7043 23.8147 31.9173 24.6018 30.9465 24.6018ZM33.5427 14.0896H31.7578V15.8745C31.7578 16.8452 30.9708 17.6323 30 17.6323C29.0292 17.6323 28.2422 16.8452 28.2422 15.8745V14.0896H26.4573C25.4865 14.0896 24.6995 13.3025 24.6995 12.3318C24.6995 11.361 25.4865 10.5739 26.4573 10.5739H28.2422V8.78906C28.2422 7.81828 29.0292 7.03125 30 7.03125C30.9708 7.03125 31.7578 7.81828 31.7578 8.78906V10.5739H33.5427C34.5135 10.5739 35.3005 11.361 35.3005 12.3318C35.3005 13.3025 34.5135 14.0896 33.5427 14.0896ZM39.8528 38.6643H37.9597C36.9889 38.6643 36.2019 37.8772 36.2019 36.9064C36.2019 35.9357 36.9889 35.1486 37.9597 35.1486H39.8528C40.8235 35.1486 41.6106 35.9357 41.6106 36.9064C41.6106 37.8772 40.8235 38.6643 39.8528 38.6643ZM39.8528 31.633H37.9597C36.9889 31.633 36.2019 30.846 36.2019 29.8752C36.2019 28.9044 36.9889 28.1174 37.9597 28.1174H39.8528C40.8235 28.1174 41.6106 28.9044 41.6106 29.8752C41.6106 30.846 40.8235 31.633 39.8528 31.633ZM39.8528 24.6018H37.9597C36.9889 24.6018 36.2019 23.8147 36.2019 22.8439C36.2019 21.8732 36.9889 21.0861 37.9597 21.0861H39.8528C40.8235 21.0861 41.6106 21.8732 41.6106 22.8439C41.6106 23.8147 40.8235 24.6018 39.8528 24.6018Z" fill="#032E63"/>
</svg>
