<svg width="60" height="60" viewBox="0 0 60 60" fill="none" xmlns="http://www.w3.org/2000/svg">
<g clip-path="url(#clip0_380_1596)">
<path d="M42.7166 46.2441H60V51.3642H42.7166V46.2441Z" fill="#032E63"/>
<path d="M21.9177 54.8799H39.201V59.9999H21.9177V54.8799Z" fill="#032E63"/>
<path d="M42.7166 54.8799H60V59.9999H42.7166V54.8799Z" fill="#032E63"/>
<path d="M31.1882 15.2051H12.3382L6.1057 24.2168C2.11137 29.9926 0 36.7573 0 43.7795V60.0002H18.4021V51.3646H39.201V42.7289H43.509C43.3091 36.0839 41.2153 29.704 37.4205 24.2169L31.1882 15.2051ZM29.8424 23.212H23.4838C24.398 24.3608 25.046 25.7296 25.3338 27.2257H29.8424V30.7413H25.3344C24.6128 34.4916 21.6294 37.4469 17.8638 38.1241L26.8668 45.8684L24.5742 48.5337L13.8934 39.3461V34.7549H16.2159C18.7855 34.7549 20.9673 33.0666 21.7127 30.7413H13.7602V27.2257H21.7127C20.9674 24.9004 18.7855 23.212 16.2159 23.212H13.7602V19.6964H29.8425V23.212H29.8424Z" fill="#032E63"/>
<path d="M10.6818 8.28105L12.4773 11.6892H31.049L32.8445 8.28105C34.2564 5.60133 35.0411 3.02648 35.1268 0H8.39954C8.48532 3.02648 9.27 5.60133 10.6818 8.28105Z" fill="#032E63"/>
</g>
<defs>
<clipPath id="clip0_380_1596">
<rect width="60" height="60" fill="white"/>
</clipPath>
</defs>
</svg>
